%TF.GenerationSoftware,KiCad,Pcbnew,(7.0.0)*%
%TF.CreationDate,2023-04-05T21:34:04+03:00*%
%TF.ProjectId,cncd-esp01-board,636e6364-2d65-4737-9030-312d626f6172,rev?*%
%TF.SameCoordinates,Original*%
%TF.FileFunction,Copper,L2,Bot*%
%TF.FilePolarity,Positive*%
%FSLAX46Y46*%
G04 Gerber Fmt 4.6, Leading zero omitted, Abs format (unit mm)*
G04 Created by KiCad (PCBNEW (7.0.0)) date 2023-04-05 21:34:04*
%MOMM*%
%LPD*%
G01*
G04 APERTURE LIST*
G04 Aperture macros list*
%AMRoundRect*
0 Rectangle with rounded corners*
0 $1 Rounding radius*
0 $2 $3 $4 $5 $6 $7 $8 $9 X,Y pos of 4 corners*
0 Add a 4 corners polygon primitive as box body*
4,1,4,$2,$3,$4,$5,$6,$7,$8,$9,$2,$3,0*
0 Add four circle primitives for the rounded corners*
1,1,$1+$1,$2,$3*
1,1,$1+$1,$4,$5*
1,1,$1+$1,$6,$7*
1,1,$1+$1,$8,$9*
0 Add four rect primitives between the rounded corners*
20,1,$1+$1,$2,$3,$4,$5,0*
20,1,$1+$1,$4,$5,$6,$7,0*
20,1,$1+$1,$6,$7,$8,$9,0*
20,1,$1+$1,$8,$9,$2,$3,0*%
G04 Aperture macros list end*
%TA.AperFunction,SMDPad,CuDef*%
%ADD10C,1.000000*%
%TD*%
%TA.AperFunction,ComponentPad*%
%ADD11RoundRect,0.250000X-0.600000X0.600000X-0.600000X-0.600000X0.600000X-0.600000X0.600000X0.600000X0*%
%TD*%
%TA.AperFunction,ComponentPad*%
%ADD12C,1.700000*%
%TD*%
%TA.AperFunction,ComponentPad*%
%ADD13R,1.700000X1.700000*%
%TD*%
%TA.AperFunction,ComponentPad*%
%ADD14O,1.700000X1.700000*%
%TD*%
%TA.AperFunction,ViaPad*%
%ADD15C,1.000000*%
%TD*%
%TA.AperFunction,Conductor*%
%ADD16C,0.250000*%
%TD*%
%TA.AperFunction,Conductor*%
%ADD17C,1.000000*%
%TD*%
G04 APERTURE END LIST*
D10*
%TO.P,B1,*%
%TO.N,*%
X3000000Y-3000000D03*
%TD*%
%TO.P,B2,*%
%TO.N,*%
X26000000Y-36000000D03*
%TD*%
D11*
%TO.P,J2,1,Pin_1*%
%TO.N,+5V*%
X10414000Y-32893000D03*
D12*
%TO.P,J2,2,Pin_2*%
X10414000Y-35433000D03*
%TO.P,J2,3,Pin_3*%
%TO.N,GND*%
X12954000Y-32893000D03*
%TO.P,J2,4,Pin_4*%
X12954000Y-35433000D03*
%TO.P,J2,5,Pin_5*%
%TO.N,unconnected-(J2-Pin_5-Pad5)*%
X15494000Y-32893000D03*
%TO.P,J2,6,Pin_6*%
%TO.N,TX_C*%
X15494000Y-35433000D03*
%TO.P,J2,7,Pin_7*%
%TO.N,unconnected-(J2-Pin_7-Pad7)*%
X18034000Y-32893000D03*
%TO.P,J2,8,Pin_8*%
%TO.N,RX_C*%
X18034000Y-35433000D03*
%TD*%
D13*
%TO.P,J1,1,Pin_1*%
%TO.N,+3.3V*%
X10449999Y-6289999D03*
D14*
%TO.P,J1,2,Pin_2*%
%TO.N,RX_ESP*%
X10449999Y-3749999D03*
%TO.P,J1,3,Pin_3*%
%TO.N,Net-(J1-Pin_3)*%
X12989999Y-6289999D03*
%TO.P,J1,4,Pin_4*%
%TO.N,Net-(J1-Pin_4)*%
X12989999Y-3749999D03*
%TO.P,J1,5,Pin_5*%
%TO.N,Net-(J1-Pin_5)*%
X15529999Y-6289999D03*
%TO.P,J1,6,Pin_6*%
%TO.N,Net-(J1-Pin_6)*%
X15529999Y-3749999D03*
%TO.P,J1,7,Pin_7*%
%TO.N,TX_ESP*%
X18069999Y-6289999D03*
%TO.P,J1,8,Pin_8*%
%TO.N,GND*%
X18069999Y-3749999D03*
%TD*%
D15*
%TO.N,GND*%
X19812000Y-31242000D03*
X23749000Y-27305000D03*
X14000000Y-17000000D03*
X4000000Y-28500000D03*
X8500000Y-12000000D03*
X7000000Y-31500000D03*
%TO.N,+3.3V*%
X11684000Y-19812000D03*
X10500000Y-8750000D03*
X8000000Y-6750000D03*
X19812000Y-22606000D03*
X25000000Y-8500000D03*
X11684000Y-18542000D03*
%TD*%
D16*
%TO.N,+3.3V*%
X25000000Y-17418000D02*
X25000000Y-8500000D01*
D17*
X11684000Y-19812000D02*
X17018000Y-19812000D01*
X10500000Y-8750000D02*
X10000000Y-8750000D01*
X11684000Y-8934000D02*
X11500000Y-8750000D01*
X17018000Y-19812000D02*
X19812000Y-22606000D01*
X11684000Y-19812000D02*
X11684000Y-8934000D01*
X10000000Y-8750000D02*
X8000000Y-6750000D01*
D16*
X19812000Y-22606000D02*
X25000000Y-17418000D01*
D17*
X11500000Y-8750000D02*
X10500000Y-8750000D01*
X10500000Y-6340000D02*
X10450000Y-6290000D01*
%TD*%
%TA.AperFunction,Conductor*%
%TO.N,GND*%
G36*
X28937500Y-17113D02*
G01*
X28982887Y-62500D01*
X28999500Y-124500D01*
X28999500Y-38875500D01*
X28982887Y-38937500D01*
X28937500Y-38982887D01*
X28875500Y-38999500D01*
X124500Y-38999500D01*
X62500Y-38982887D01*
X17113Y-38937500D01*
X500Y-38875500D01*
X500Y-35000000D01*
X1644341Y-35000000D01*
X1644813Y-35005395D01*
X1659035Y-35167957D01*
X1664937Y-35235408D01*
X1666336Y-35240630D01*
X1666337Y-35240634D01*
X1724694Y-35458430D01*
X1724697Y-35458438D01*
X1726097Y-35463663D01*
X1825965Y-35677829D01*
X1961505Y-35871401D01*
X2128599Y-36038495D01*
X2322171Y-36174035D01*
X2536337Y-36273903D01*
X2764592Y-36335063D01*
X2941034Y-36350500D01*
X3056258Y-36350500D01*
X3058966Y-36350500D01*
X3235408Y-36335063D01*
X3463663Y-36273903D01*
X3677829Y-36174035D01*
X3871401Y-36038495D01*
X4038495Y-35871401D01*
X4174035Y-35677830D01*
X4273903Y-35463663D01*
X4282119Y-35433000D01*
X9258571Y-35433000D01*
X9259100Y-35438709D01*
X9276000Y-35621100D01*
X9278244Y-35645310D01*
X9279812Y-35650821D01*
X9279814Y-35650831D01*
X9335024Y-35844870D01*
X9335026Y-35844876D01*
X9336595Y-35850389D01*
X9431634Y-36041255D01*
X9435086Y-36045826D01*
X9548592Y-36196132D01*
X9560128Y-36211407D01*
X9717698Y-36355052D01*
X9898981Y-36467298D01*
X10097802Y-36544321D01*
X10307390Y-36583500D01*
X10514881Y-36583500D01*
X10520610Y-36583500D01*
X10712636Y-36547604D01*
X12196316Y-36547604D01*
X12203747Y-36555713D01*
X12271991Y-36603498D01*
X12281323Y-36608886D01*
X12485602Y-36704143D01*
X12495736Y-36707831D01*
X12713446Y-36766166D01*
X12724077Y-36768041D01*
X12948605Y-36787685D01*
X12959395Y-36787685D01*
X13183922Y-36768041D01*
X13194553Y-36766166D01*
X13412263Y-36707831D01*
X13422397Y-36704143D01*
X13626671Y-36608888D01*
X13636016Y-36603492D01*
X13704248Y-36555715D01*
X13711681Y-36547603D01*
X13705768Y-36538321D01*
X12965542Y-35798095D01*
X12954000Y-35791431D01*
X12942457Y-35798095D01*
X12202230Y-36538321D01*
X12196316Y-36547604D01*
X10712636Y-36547604D01*
X10730198Y-36544321D01*
X10929019Y-36467298D01*
X11110302Y-36355052D01*
X11267872Y-36211407D01*
X11396366Y-36041255D01*
X11463325Y-35906781D01*
X11509722Y-35856212D01*
X11575914Y-35838065D01*
X11641617Y-35857904D01*
X11686705Y-35909650D01*
X11778110Y-36105668D01*
X11783508Y-36115018D01*
X11831284Y-36183249D01*
X11839395Y-36190682D01*
X11848674Y-36184771D01*
X12588904Y-35444542D01*
X12595568Y-35433000D01*
X13312431Y-35433000D01*
X13319095Y-35444542D01*
X14059321Y-36184768D01*
X14068603Y-36190681D01*
X14076715Y-36183248D01*
X14124492Y-36115016D01*
X14129890Y-36105667D01*
X14221294Y-35909651D01*
X14266381Y-35857904D01*
X14332085Y-35838065D01*
X14398276Y-35856212D01*
X14444676Y-35906784D01*
X14444676Y-35906785D01*
X14511634Y-36041255D01*
X14515086Y-36045826D01*
X14628592Y-36196132D01*
X14640128Y-36211407D01*
X14797698Y-36355052D01*
X14978981Y-36467298D01*
X15177802Y-36544321D01*
X15387390Y-36583500D01*
X15594881Y-36583500D01*
X15600610Y-36583500D01*
X15810198Y-36544321D01*
X16009019Y-36467298D01*
X16190302Y-36355052D01*
X16347872Y-36211407D01*
X16476366Y-36041255D01*
X16571405Y-35850389D01*
X16629756Y-35645310D01*
X16640529Y-35529047D01*
X16660633Y-35471996D01*
X16703410Y-35432999D01*
X16824589Y-35432999D01*
X16867367Y-35471996D01*
X16887471Y-35529048D01*
X16896000Y-35621100D01*
X16898244Y-35645310D01*
X16899812Y-35650821D01*
X16899814Y-35650831D01*
X16955024Y-35844870D01*
X16955026Y-35844876D01*
X16956595Y-35850389D01*
X17051634Y-36041255D01*
X17055086Y-36045826D01*
X17168592Y-36196132D01*
X17180128Y-36211407D01*
X17337698Y-36355052D01*
X17518981Y-36467298D01*
X17717802Y-36544321D01*
X17927390Y-36583500D01*
X18134881Y-36583500D01*
X18140610Y-36583500D01*
X18350198Y-36544321D01*
X18549019Y-36467298D01*
X18730302Y-36355052D01*
X18887872Y-36211407D01*
X19016366Y-36041255D01*
X19111405Y-35850389D01*
X19169756Y-35645310D01*
X19189429Y-35433000D01*
X19169756Y-35220690D01*
X19111405Y-35015611D01*
X19016366Y-34824745D01*
X18887872Y-34654593D01*
X18883639Y-34650734D01*
X18734531Y-34514803D01*
X18734529Y-34514801D01*
X18730302Y-34510948D01*
X18725438Y-34507936D01*
X18725435Y-34507934D01*
X18553890Y-34401718D01*
X18553889Y-34401717D01*
X18549019Y-34398702D01*
X18543681Y-34396634D01*
X18543677Y-34396632D01*
X18355545Y-34323750D01*
X18355540Y-34323748D01*
X18350198Y-34321679D01*
X18332630Y-34318395D01*
X18289230Y-34310282D01*
X18153388Y-34284888D01*
X18092636Y-34254637D01*
X18056908Y-34196934D01*
X18056908Y-34129066D01*
X18092636Y-34071363D01*
X18153388Y-34041111D01*
X18350198Y-34004321D01*
X18549019Y-33927298D01*
X18730302Y-33815052D01*
X18887872Y-33671407D01*
X19016366Y-33501255D01*
X19111405Y-33310389D01*
X19121759Y-33274000D01*
X21082000Y-33274000D01*
X21082000Y-36322000D01*
X21565000Y-36000000D01*
X24994659Y-36000000D01*
X24995256Y-36006062D01*
X25013378Y-36190067D01*
X25013379Y-36190073D01*
X25013976Y-36196132D01*
X25015743Y-36201957D01*
X25015744Y-36201962D01*
X25056263Y-36335534D01*
X25071186Y-36384727D01*
X25074055Y-36390095D01*
X25074057Y-36390099D01*
X25161215Y-36553161D01*
X25161219Y-36553167D01*
X25164090Y-36558538D01*
X25289117Y-36710883D01*
X25441462Y-36835910D01*
X25446834Y-36838781D01*
X25446838Y-36838784D01*
X25588839Y-36914684D01*
X25615273Y-36928814D01*
X25803868Y-36986024D01*
X26000000Y-37005341D01*
X26196132Y-36986024D01*
X26384727Y-36928814D01*
X26558538Y-36835910D01*
X26710883Y-36710883D01*
X26835910Y-36558538D01*
X26928814Y-36384727D01*
X26986024Y-36196132D01*
X27005341Y-36000000D01*
X26986024Y-35803868D01*
X26928814Y-35615273D01*
X26835910Y-35441462D01*
X26710883Y-35289117D01*
X26558538Y-35164090D01*
X26553167Y-35161219D01*
X26553161Y-35161215D01*
X26390099Y-35074057D01*
X26390095Y-35074055D01*
X26384727Y-35071186D01*
X26373908Y-35067904D01*
X26201962Y-35015744D01*
X26201957Y-35015743D01*
X26196132Y-35013976D01*
X26190073Y-35013379D01*
X26190067Y-35013378D01*
X26006062Y-34995256D01*
X26000000Y-34994659D01*
X25993938Y-34995256D01*
X25809932Y-35013378D01*
X25809924Y-35013379D01*
X25803868Y-35013976D01*
X25798044Y-35015742D01*
X25798037Y-35015744D01*
X25621100Y-35069418D01*
X25621096Y-35069419D01*
X25615273Y-35071186D01*
X25609907Y-35074053D01*
X25609900Y-35074057D01*
X25446838Y-35161215D01*
X25446827Y-35161222D01*
X25441462Y-35164090D01*
X25436754Y-35167953D01*
X25436749Y-35167957D01*
X25293823Y-35285254D01*
X25293818Y-35285258D01*
X25289117Y-35289117D01*
X25285258Y-35293818D01*
X25285254Y-35293823D01*
X25167957Y-35436749D01*
X25167953Y-35436754D01*
X25164090Y-35441462D01*
X25161222Y-35446827D01*
X25161215Y-35446838D01*
X25074057Y-35609900D01*
X25074053Y-35609907D01*
X25071186Y-35615273D01*
X25069419Y-35621096D01*
X25069418Y-35621100D01*
X25015744Y-35798037D01*
X25015742Y-35798044D01*
X25013976Y-35803868D01*
X25013379Y-35809924D01*
X25013378Y-35809932D01*
X25003557Y-35909651D01*
X24994659Y-36000000D01*
X21565000Y-36000000D01*
X23368000Y-34798000D01*
X21082000Y-33274000D01*
X19121759Y-33274000D01*
X19169756Y-33105310D01*
X19189429Y-32893000D01*
X19169756Y-32680690D01*
X19111405Y-32475611D01*
X19016366Y-32284745D01*
X18887872Y-32114593D01*
X18730302Y-31970948D01*
X18725438Y-31967936D01*
X18725435Y-31967934D01*
X18553890Y-31861718D01*
X18553889Y-31861717D01*
X18549019Y-31858702D01*
X18543681Y-31856634D01*
X18543677Y-31856632D01*
X18355545Y-31783750D01*
X18355540Y-31783748D01*
X18350198Y-31781679D01*
X18332636Y-31778396D01*
X18146239Y-31743552D01*
X18146236Y-31743551D01*
X18140610Y-31742500D01*
X17927390Y-31742500D01*
X17921764Y-31743551D01*
X17921760Y-31743552D01*
X17723439Y-31780625D01*
X17723436Y-31780625D01*
X17717802Y-31781679D01*
X17712461Y-31783747D01*
X17712454Y-31783750D01*
X17524322Y-31856632D01*
X17524313Y-31856636D01*
X17518981Y-31858702D01*
X17514114Y-31861715D01*
X17514109Y-31861718D01*
X17342564Y-31967934D01*
X17342555Y-31967940D01*
X17337698Y-31970948D01*
X17333475Y-31974797D01*
X17333468Y-31974803D01*
X17184360Y-32110734D01*
X17184354Y-32110739D01*
X17180128Y-32114593D01*
X17176681Y-32119156D01*
X17176675Y-32119164D01*
X17055086Y-32280173D01*
X17055083Y-32280177D01*
X17051634Y-32284745D01*
X17049082Y-32289870D01*
X17049079Y-32289875D01*
X16960337Y-32468095D01*
X16956595Y-32475611D01*
X16955027Y-32481119D01*
X16955024Y-32481129D01*
X16899814Y-32675168D01*
X16899811Y-32675179D01*
X16898244Y-32680690D01*
X16897714Y-32686400D01*
X16897714Y-32686405D01*
X16887471Y-32796951D01*
X16867367Y-32854003D01*
X16824589Y-32892999D01*
X16867367Y-32931996D01*
X16887470Y-32989047D01*
X16898244Y-33105310D01*
X16899812Y-33110821D01*
X16899814Y-33110831D01*
X16955024Y-33304870D01*
X16955026Y-33304876D01*
X16956595Y-33310389D01*
X17051634Y-33501255D01*
X17055086Y-33505826D01*
X17174885Y-33664465D01*
X17180128Y-33671407D01*
X17184360Y-33675265D01*
X17242630Y-33728386D01*
X17337698Y-33815052D01*
X17342563Y-33818064D01*
X17342564Y-33818065D01*
X17355323Y-33825965D01*
X17518981Y-33927298D01*
X17717802Y-34004321D01*
X17875634Y-34033825D01*
X17914610Y-34041111D01*
X17975363Y-34071363D01*
X18011091Y-34129066D01*
X18011091Y-34196934D01*
X17975363Y-34254637D01*
X17914610Y-34284889D01*
X17723439Y-34320625D01*
X17723436Y-34320625D01*
X17717802Y-34321679D01*
X17712461Y-34323747D01*
X17712454Y-34323750D01*
X17524322Y-34396632D01*
X17524313Y-34396636D01*
X17518981Y-34398702D01*
X17514114Y-34401715D01*
X17514109Y-34401718D01*
X17342564Y-34507934D01*
X17342555Y-34507940D01*
X17337698Y-34510948D01*
X17333475Y-34514797D01*
X17333468Y-34514803D01*
X17184360Y-34650734D01*
X17184354Y-34650739D01*
X17180128Y-34654593D01*
X17176681Y-34659156D01*
X17176675Y-34659164D01*
X17055086Y-34820173D01*
X17055083Y-34820177D01*
X17051634Y-34824745D01*
X17049084Y-34829867D01*
X17049079Y-34829875D01*
X16966730Y-34995256D01*
X16956595Y-35015611D01*
X16955027Y-35021119D01*
X16955024Y-35021129D01*
X16899814Y-35215168D01*
X16899811Y-35215179D01*
X16898244Y-35220690D01*
X16897714Y-35226400D01*
X16897714Y-35226405D01*
X16887471Y-35336951D01*
X16867367Y-35394003D01*
X16824589Y-35432999D01*
X16703410Y-35432999D01*
X16660633Y-35394003D01*
X16640529Y-35336951D01*
X16639523Y-35326098D01*
X16629756Y-35220690D01*
X16571405Y-35015611D01*
X16476366Y-34824745D01*
X16347872Y-34654593D01*
X16343639Y-34650734D01*
X16194531Y-34514803D01*
X16194529Y-34514801D01*
X16190302Y-34510948D01*
X16185438Y-34507936D01*
X16185435Y-34507934D01*
X16013890Y-34401718D01*
X16013889Y-34401717D01*
X16009019Y-34398702D01*
X16003681Y-34396634D01*
X16003677Y-34396632D01*
X15815545Y-34323750D01*
X15815540Y-34323748D01*
X15810198Y-34321679D01*
X15792630Y-34318395D01*
X15749230Y-34310282D01*
X15613388Y-34284888D01*
X15552636Y-34254637D01*
X15516908Y-34196934D01*
X15516908Y-34129066D01*
X15552636Y-34071363D01*
X15613388Y-34041111D01*
X15810198Y-34004321D01*
X16009019Y-33927298D01*
X16190302Y-33815052D01*
X16347872Y-33671407D01*
X16476366Y-33501255D01*
X16571405Y-33310389D01*
X16629756Y-33105310D01*
X16640529Y-32989047D01*
X16660633Y-32931996D01*
X16703410Y-32892999D01*
X16660633Y-32854003D01*
X16640529Y-32796951D01*
X16639523Y-32786098D01*
X16629756Y-32680690D01*
X16571405Y-32475611D01*
X16476366Y-32284745D01*
X16347872Y-32114593D01*
X16190302Y-31970948D01*
X16185438Y-31967936D01*
X16185435Y-31967934D01*
X16013890Y-31861718D01*
X16013889Y-31861717D01*
X16009019Y-31858702D01*
X16003681Y-31856634D01*
X16003677Y-31856632D01*
X15815545Y-31783750D01*
X15815540Y-31783748D01*
X15810198Y-31781679D01*
X15792636Y-31778396D01*
X15606239Y-31743552D01*
X15606236Y-31743551D01*
X15600610Y-31742500D01*
X15387390Y-31742500D01*
X15381764Y-31743551D01*
X15381760Y-31743552D01*
X15183439Y-31780625D01*
X15183436Y-31780625D01*
X15177802Y-31781679D01*
X15172461Y-31783747D01*
X15172454Y-31783750D01*
X14984322Y-31856632D01*
X14984313Y-31856636D01*
X14978981Y-31858702D01*
X14974114Y-31861715D01*
X14974109Y-31861718D01*
X14802564Y-31967934D01*
X14802555Y-31967940D01*
X14797698Y-31970948D01*
X14793475Y-31974797D01*
X14793468Y-31974803D01*
X14644360Y-32110734D01*
X14644354Y-32110739D01*
X14640128Y-32114593D01*
X14636681Y-32119156D01*
X14636675Y-32119164D01*
X14515086Y-32280173D01*
X14515083Y-32280177D01*
X14511634Y-32284745D01*
X14509079Y-32289875D01*
X14509079Y-32289876D01*
X14444676Y-32419215D01*
X14398276Y-32469788D01*
X14332085Y-32487934D01*
X14266381Y-32468095D01*
X14221294Y-32416349D01*
X14129889Y-32220332D01*
X14124491Y-32210982D01*
X14076714Y-32142749D01*
X14068603Y-32135316D01*
X14059324Y-32141227D01*
X13319095Y-32881457D01*
X13312431Y-32893000D01*
X13319095Y-32904542D01*
X14059321Y-33644768D01*
X14068603Y-33650681D01*
X14076715Y-33643248D01*
X14124492Y-33575016D01*
X14129890Y-33565667D01*
X14221294Y-33369651D01*
X14266381Y-33317904D01*
X14332085Y-33298065D01*
X14398276Y-33316212D01*
X14444676Y-33366784D01*
X14511634Y-33501255D01*
X14515086Y-33505826D01*
X14634885Y-33664465D01*
X14640128Y-33671407D01*
X14644360Y-33675265D01*
X14702630Y-33728386D01*
X14797698Y-33815052D01*
X14802563Y-33818064D01*
X14802564Y-33818065D01*
X14815323Y-33825965D01*
X14978981Y-33927298D01*
X15177802Y-34004321D01*
X15335634Y-34033825D01*
X15374610Y-34041111D01*
X15435363Y-34071363D01*
X15471091Y-34129066D01*
X15471091Y-34196934D01*
X15435363Y-34254637D01*
X15374610Y-34284889D01*
X15183439Y-34320625D01*
X15183436Y-34320625D01*
X15177802Y-34321679D01*
X15172461Y-34323747D01*
X15172454Y-34323750D01*
X14984322Y-34396632D01*
X14984313Y-34396636D01*
X14978981Y-34398702D01*
X14974114Y-34401715D01*
X14974109Y-34401718D01*
X14802564Y-34507934D01*
X14802555Y-34507940D01*
X14797698Y-34510948D01*
X14793475Y-34514797D01*
X14793468Y-34514803D01*
X14644360Y-34650734D01*
X14644354Y-34650739D01*
X14640128Y-34654593D01*
X14636681Y-34659156D01*
X14636675Y-34659164D01*
X14515086Y-34820173D01*
X14515083Y-34820177D01*
X14511634Y-34824745D01*
X14509079Y-34829875D01*
X14509079Y-34829876D01*
X14444676Y-34959215D01*
X14398276Y-35009788D01*
X14332085Y-35027934D01*
X14266381Y-35008095D01*
X14221294Y-34956349D01*
X14129889Y-34760332D01*
X14124491Y-34750982D01*
X14076714Y-34682749D01*
X14068603Y-34675316D01*
X14059324Y-34681227D01*
X13319095Y-35421457D01*
X13312431Y-35433000D01*
X12595568Y-35433000D01*
X12588904Y-35421457D01*
X11848674Y-34681227D01*
X11839396Y-34675316D01*
X11831283Y-34682750D01*
X11783505Y-34750986D01*
X11778111Y-34760330D01*
X11686705Y-34956349D01*
X11641617Y-35008095D01*
X11575914Y-35027934D01*
X11509723Y-35009787D01*
X11463325Y-34959218D01*
X11396366Y-34824745D01*
X11267872Y-34654593D01*
X11263639Y-34650734D01*
X11114531Y-34514803D01*
X11114529Y-34514801D01*
X11110302Y-34510948D01*
X11105438Y-34507936D01*
X11105435Y-34507934D01*
X10933890Y-34401718D01*
X10933889Y-34401717D01*
X10929019Y-34398702D01*
X10923681Y-34396634D01*
X10923677Y-34396632D01*
X10735545Y-34323750D01*
X10735540Y-34323748D01*
X10730198Y-34321679D01*
X10712635Y-34318396D01*
X12196316Y-34318396D01*
X12202227Y-34327674D01*
X12942457Y-35067904D01*
X12953999Y-35074568D01*
X12965542Y-35067904D01*
X13705771Y-34327674D01*
X13711682Y-34318395D01*
X13704251Y-34310286D01*
X13638968Y-34264574D01*
X13600102Y-34220255D01*
X13586092Y-34162999D01*
X13600103Y-34105742D01*
X13638969Y-34061424D01*
X13704249Y-34015714D01*
X13711681Y-34007603D01*
X13705768Y-33998321D01*
X12965542Y-33258095D01*
X12954000Y-33251431D01*
X12942457Y-33258095D01*
X12202230Y-33998321D01*
X12196316Y-34007604D01*
X12203749Y-34015715D01*
X12269030Y-34061425D01*
X12307896Y-34105743D01*
X12321907Y-34163000D01*
X12307896Y-34220257D01*
X12269030Y-34264575D01*
X12203751Y-34310282D01*
X12196316Y-34318396D01*
X10712635Y-34318396D01*
X10712630Y-34318395D01*
X10557463Y-34289389D01*
X10502509Y-34264106D01*
X10466056Y-34215833D01*
X10456777Y-34156059D01*
X10476881Y-34099007D01*
X10521584Y-34058254D01*
X10580248Y-34043500D01*
X11053401Y-34043500D01*
X11057102Y-34043500D01*
X11145564Y-34032877D01*
X11286342Y-33977361D01*
X11406922Y-33885922D01*
X11498361Y-33765342D01*
X11553877Y-33624564D01*
X11554825Y-33616666D01*
X11556773Y-33608962D01*
X11559485Y-33609647D01*
X11576039Y-33566778D01*
X11622859Y-33527147D01*
X11682945Y-33514807D01*
X11741595Y-33532777D01*
X11779281Y-33571362D01*
X11780400Y-33570579D01*
X11831284Y-33643249D01*
X11839395Y-33650682D01*
X11848674Y-33644771D01*
X12588904Y-32904542D01*
X12595568Y-32893000D01*
X12588904Y-32881457D01*
X11848674Y-32141227D01*
X11839396Y-32135316D01*
X11831283Y-32142750D01*
X11780400Y-32215422D01*
X11779283Y-32214640D01*
X11741583Y-32253229D01*
X11682941Y-32271192D01*
X11622862Y-32258853D01*
X11576046Y-32219231D01*
X11559482Y-32176353D01*
X11556773Y-32177038D01*
X11554825Y-32169331D01*
X11553877Y-32161436D01*
X11498361Y-32020658D01*
X11406922Y-31900078D01*
X11286342Y-31808639D01*
X11209651Y-31778396D01*
X12196316Y-31778396D01*
X12202227Y-31787674D01*
X12942457Y-32527904D01*
X12953999Y-32534568D01*
X12965542Y-32527904D01*
X13705771Y-31787674D01*
X13711682Y-31778395D01*
X13704249Y-31770284D01*
X13636018Y-31722508D01*
X13626668Y-31717110D01*
X13422397Y-31621856D01*
X13412263Y-31618168D01*
X13194553Y-31559833D01*
X13183922Y-31557958D01*
X12959395Y-31538315D01*
X12948605Y-31538315D01*
X12724077Y-31557958D01*
X12713446Y-31559833D01*
X12495736Y-31618168D01*
X12485602Y-31621856D01*
X12281330Y-31717111D01*
X12271986Y-31722505D01*
X12203750Y-31770283D01*
X12196316Y-31778396D01*
X11209651Y-31778396D01*
X11189081Y-31770284D01*
X11152961Y-31756040D01*
X11152960Y-31756039D01*
X11145564Y-31753123D01*
X11137674Y-31752175D01*
X11137668Y-31752174D01*
X11060781Y-31742941D01*
X11060767Y-31742940D01*
X11057102Y-31742500D01*
X9770898Y-31742500D01*
X9767233Y-31742940D01*
X9767218Y-31742941D01*
X9690331Y-31752174D01*
X9690324Y-31752175D01*
X9682436Y-31753123D01*
X9675040Y-31756039D01*
X9675038Y-31756040D01*
X9549551Y-31805526D01*
X9549548Y-31805527D01*
X9541658Y-31808639D01*
X9534899Y-31813764D01*
X9534898Y-31813765D01*
X9427835Y-31894953D01*
X9427830Y-31894957D01*
X9421078Y-31900078D01*
X9415957Y-31906830D01*
X9415953Y-31906835D01*
X9367335Y-31970948D01*
X9329639Y-32020658D01*
X9326527Y-32028548D01*
X9326526Y-32028551D01*
X9281492Y-32142750D01*
X9274123Y-32161436D01*
X9273175Y-32169324D01*
X9273174Y-32169331D01*
X9263941Y-32246218D01*
X9263940Y-32246233D01*
X9263500Y-32249898D01*
X9263500Y-33536102D01*
X9263940Y-33539767D01*
X9263941Y-33539781D01*
X9273174Y-33616668D01*
X9273175Y-33616674D01*
X9274123Y-33624564D01*
X9329639Y-33765342D01*
X9421078Y-33885922D01*
X9541658Y-33977361D01*
X9682436Y-34032877D01*
X9770898Y-34043500D01*
X9774599Y-34043500D01*
X10247752Y-34043500D01*
X10306416Y-34058254D01*
X10351119Y-34099007D01*
X10371223Y-34156059D01*
X10361944Y-34215833D01*
X10325491Y-34264106D01*
X10270537Y-34289389D01*
X10103439Y-34320625D01*
X10103436Y-34320625D01*
X10097802Y-34321679D01*
X10092461Y-34323747D01*
X10092454Y-34323750D01*
X9904322Y-34396632D01*
X9904313Y-34396636D01*
X9898981Y-34398702D01*
X9894114Y-34401715D01*
X9894109Y-34401718D01*
X9722564Y-34507934D01*
X9722555Y-34507940D01*
X9717698Y-34510948D01*
X9713475Y-34514797D01*
X9713468Y-34514803D01*
X9564360Y-34650734D01*
X9564354Y-34650739D01*
X9560128Y-34654593D01*
X9556681Y-34659156D01*
X9556675Y-34659164D01*
X9435086Y-34820173D01*
X9435083Y-34820177D01*
X9431634Y-34824745D01*
X9429084Y-34829867D01*
X9429079Y-34829875D01*
X9346730Y-34995256D01*
X9336595Y-35015611D01*
X9335027Y-35021119D01*
X9335024Y-35021129D01*
X9279814Y-35215168D01*
X9279811Y-35215179D01*
X9278244Y-35220690D01*
X9277714Y-35226400D01*
X9277714Y-35226405D01*
X9259641Y-35421457D01*
X9258571Y-35433000D01*
X4282119Y-35433000D01*
X4335063Y-35235408D01*
X4355659Y-35000000D01*
X4335063Y-34764592D01*
X4273903Y-34536337D01*
X4174035Y-34322171D01*
X4038495Y-34128599D01*
X3871401Y-33961505D01*
X3677829Y-33825965D01*
X3463663Y-33726097D01*
X3458438Y-33724697D01*
X3458430Y-33724694D01*
X3240634Y-33666337D01*
X3240630Y-33666336D01*
X3235408Y-33664937D01*
X3230020Y-33664465D01*
X3230017Y-33664465D01*
X3061664Y-33649736D01*
X3061662Y-33649735D01*
X3058966Y-33649500D01*
X2941034Y-33649500D01*
X2938338Y-33649735D01*
X2938335Y-33649736D01*
X2769982Y-33664465D01*
X2769977Y-33664465D01*
X2764592Y-33664937D01*
X2759371Y-33666335D01*
X2759365Y-33666337D01*
X2541569Y-33724694D01*
X2541557Y-33724698D01*
X2536337Y-33726097D01*
X2531432Y-33728383D01*
X2531427Y-33728386D01*
X2327081Y-33823675D01*
X2327077Y-33823677D01*
X2322171Y-33825965D01*
X2317738Y-33829068D01*
X2317731Y-33829073D01*
X2133034Y-33958399D01*
X2133029Y-33958402D01*
X2128599Y-33961505D01*
X2124775Y-33965328D01*
X2124769Y-33965334D01*
X1965336Y-34124767D01*
X1965330Y-34124773D01*
X1961505Y-34128599D01*
X1958406Y-34133023D01*
X1958399Y-34133033D01*
X1829066Y-34317740D01*
X1829061Y-34317747D01*
X1825965Y-34322170D01*
X1823683Y-34327061D01*
X1823678Y-34327072D01*
X1728386Y-34531427D01*
X1728383Y-34531432D01*
X1726097Y-34536337D01*
X1724698Y-34541557D01*
X1724694Y-34541569D01*
X1666337Y-34759365D01*
X1666335Y-34759371D01*
X1664937Y-34764592D01*
X1644341Y-35000000D01*
X500Y-35000000D01*
X500Y-11684000D01*
X2032000Y-11684000D01*
X5063165Y-11684000D01*
X5080000Y-11684000D01*
X3556000Y-9398000D01*
X3547507Y-9410738D01*
X3547507Y-9410739D01*
X3371666Y-9674500D01*
X2032000Y-11684000D01*
X500Y-11684000D01*
X500Y-6750000D01*
X7194435Y-6750000D01*
X7195215Y-6756923D01*
X7198720Y-6788031D01*
X7199500Y-6801914D01*
X7199500Y-6840194D01*
X7201049Y-6846983D01*
X7201050Y-6846988D01*
X7208017Y-6877518D01*
X7210345Y-6891218D01*
X7213852Y-6922336D01*
X7214632Y-6929255D01*
X7216929Y-6935821D01*
X7216930Y-6935823D01*
X7227272Y-6965379D01*
X7231119Y-6978735D01*
X7238088Y-7009267D01*
X7238091Y-7009276D01*
X7239640Y-7016061D01*
X7242658Y-7022329D01*
X7242661Y-7022336D01*
X7256250Y-7050554D01*
X7261568Y-7063393D01*
X7274211Y-7099522D01*
X7277912Y-7105412D01*
X7277913Y-7105414D01*
X7294572Y-7131927D01*
X7301296Y-7144093D01*
X7314888Y-7172315D01*
X7317909Y-7178587D01*
X7322916Y-7184865D01*
X7341771Y-7208509D01*
X7349818Y-7219850D01*
X7370184Y-7252262D01*
X7402174Y-7284252D01*
X9370184Y-9252262D01*
X9497738Y-9379816D01*
X9503633Y-9383520D01*
X9530143Y-9400177D01*
X9541484Y-9408223D01*
X9571413Y-9432091D01*
X9577688Y-9435113D01*
X9577690Y-9435114D01*
X9605895Y-9448697D01*
X9618064Y-9455422D01*
X9650478Y-9475789D01*
X9657047Y-9478087D01*
X9657048Y-9478088D01*
X9686606Y-9488431D01*
X9699443Y-9493747D01*
X9733939Y-9510360D01*
X9771266Y-9518879D01*
X9784613Y-9522725D01*
X9814170Y-9533068D01*
X9814175Y-9533069D01*
X9820745Y-9535368D01*
X9858778Y-9539653D01*
X9872484Y-9541981D01*
X9909806Y-9550500D01*
X9955046Y-9550500D01*
X10090194Y-9550500D01*
X10448086Y-9550500D01*
X10461968Y-9551279D01*
X10500000Y-9555565D01*
X10538031Y-9551279D01*
X10551914Y-9550500D01*
X10759500Y-9550500D01*
X10821500Y-9567113D01*
X10866887Y-9612500D01*
X10883500Y-9674500D01*
X10883500Y-18490086D01*
X10882720Y-18503968D01*
X10878435Y-18542000D01*
X10879215Y-18548923D01*
X10882720Y-18580031D01*
X10883500Y-18593914D01*
X10883500Y-19760086D01*
X10882720Y-19773968D01*
X10878435Y-19812000D01*
X10898632Y-19991255D01*
X10900928Y-19997819D01*
X10900930Y-19997824D01*
X10955913Y-20154956D01*
X10958211Y-20161522D01*
X11054184Y-20314262D01*
X11181738Y-20441816D01*
X11334478Y-20537789D01*
X11504745Y-20597368D01*
X11684000Y-20617565D01*
X11722031Y-20613279D01*
X11735914Y-20612500D01*
X16635060Y-20612500D01*
X16682513Y-20621939D01*
X16722741Y-20648819D01*
X19182182Y-23108259D01*
X19182184Y-23108262D01*
X19309738Y-23235816D01*
X19315633Y-23239520D01*
X19315637Y-23239523D01*
X19342149Y-23256181D01*
X19353487Y-23264226D01*
X19383414Y-23288092D01*
X19389689Y-23291114D01*
X19389691Y-23291115D01*
X19417898Y-23304699D01*
X19430069Y-23311425D01*
X19456581Y-23328084D01*
X19456583Y-23328085D01*
X19462478Y-23331789D01*
X19498613Y-23344433D01*
X19511443Y-23349748D01*
X19539662Y-23363338D01*
X19539667Y-23363340D01*
X19545939Y-23366360D01*
X19583266Y-23374879D01*
X19596613Y-23378725D01*
X19626170Y-23389068D01*
X19626175Y-23389069D01*
X19632745Y-23391368D01*
X19670778Y-23395653D01*
X19684484Y-23397981D01*
X19721806Y-23406500D01*
X19760086Y-23406500D01*
X19773968Y-23407279D01*
X19812000Y-23411565D01*
X19850031Y-23407279D01*
X19863914Y-23406500D01*
X19895229Y-23406500D01*
X19902195Y-23406500D01*
X19939507Y-23397982D01*
X19953216Y-23395653D01*
X19984331Y-23392148D01*
X19984331Y-23392147D01*
X19991255Y-23391368D01*
X20027403Y-23378718D01*
X20040726Y-23374881D01*
X20078061Y-23366360D01*
X20112551Y-23349749D01*
X20125402Y-23344427D01*
X20125405Y-23344426D01*
X20161522Y-23331789D01*
X20193930Y-23311425D01*
X20206098Y-23304699D01*
X20223726Y-23296211D01*
X20234314Y-23291113D01*
X20234315Y-23291112D01*
X20240587Y-23288092D01*
X20270520Y-23264220D01*
X20281849Y-23256181D01*
X20314262Y-23235816D01*
X20341326Y-23208750D01*
X20351684Y-23199493D01*
X20381621Y-23175621D01*
X20405493Y-23145684D01*
X20414752Y-23135325D01*
X20441816Y-23108262D01*
X20462181Y-23075849D01*
X20470220Y-23064520D01*
X20494092Y-23034587D01*
X20510699Y-23000098D01*
X20517428Y-22987925D01*
X20537789Y-22955522D01*
X20550427Y-22919400D01*
X20555750Y-22906550D01*
X20572360Y-22872061D01*
X20580881Y-22834726D01*
X20584718Y-22821403D01*
X20597368Y-22785255D01*
X20601653Y-22747215D01*
X20603984Y-22733500D01*
X20612500Y-22696195D01*
X20612500Y-22657914D01*
X20613280Y-22644031D01*
X20616785Y-22612923D01*
X20617565Y-22606000D01*
X20613279Y-22567968D01*
X20612500Y-22554086D01*
X20612500Y-22522768D01*
X20612500Y-22515806D01*
X20607576Y-22494232D01*
X20609313Y-22432314D01*
X20640784Y-22378962D01*
X25324554Y-17695194D01*
X25324554Y-17695193D01*
X25348528Y-17671220D01*
X25359488Y-17649706D01*
X25369660Y-17633109D01*
X25383849Y-17613581D01*
X25391312Y-17590607D01*
X25398756Y-17572639D01*
X25409719Y-17551126D01*
X25413496Y-17527272D01*
X25418038Y-17508354D01*
X25425500Y-17485393D01*
X25425500Y-17350607D01*
X25425500Y-9246581D01*
X25440973Y-9186599D01*
X25483527Y-9141587D01*
X25502262Y-9129816D01*
X25629816Y-9002262D01*
X25725789Y-8849522D01*
X25785368Y-8679255D01*
X25805565Y-8500000D01*
X25785368Y-8320745D01*
X25725789Y-8150478D01*
X25629816Y-7997738D01*
X25502262Y-7870184D01*
X25349522Y-7774211D01*
X25342959Y-7771914D01*
X25342956Y-7771913D01*
X25185824Y-7716930D01*
X25185819Y-7716928D01*
X25179255Y-7714632D01*
X25172335Y-7713852D01*
X25172334Y-7713852D01*
X25006923Y-7695215D01*
X25000000Y-7694435D01*
X24993077Y-7695215D01*
X24827665Y-7713852D01*
X24827662Y-7713852D01*
X24820745Y-7714632D01*
X24814182Y-7716928D01*
X24814175Y-7716930D01*
X24657043Y-7771913D01*
X24657036Y-7771915D01*
X24650478Y-7774211D01*
X24644590Y-7777910D01*
X24644587Y-7777912D01*
X24503638Y-7866476D01*
X24503633Y-7866479D01*
X24497738Y-7870184D01*
X24492813Y-7875108D01*
X24492809Y-7875112D01*
X24375112Y-7992809D01*
X24375108Y-7992813D01*
X24370184Y-7997738D01*
X24366479Y-8003633D01*
X24366476Y-8003638D01*
X24277912Y-8144587D01*
X24277910Y-8144590D01*
X24274211Y-8150478D01*
X24271915Y-8157036D01*
X24271913Y-8157043D01*
X24216930Y-8314175D01*
X24216928Y-8314182D01*
X24214632Y-8320745D01*
X24194435Y-8500000D01*
X24195215Y-8506923D01*
X24204693Y-8591048D01*
X24214632Y-8679255D01*
X24216928Y-8685819D01*
X24216930Y-8685824D01*
X24271913Y-8842956D01*
X24274211Y-8849522D01*
X24370184Y-9002262D01*
X24497738Y-9129816D01*
X24516472Y-9141587D01*
X24559027Y-9186599D01*
X24574500Y-9246581D01*
X24574500Y-17190390D01*
X24565061Y-17237843D01*
X24538181Y-17278071D01*
X20164845Y-21651405D01*
X20109258Y-21683499D01*
X20045070Y-21683499D01*
X19989483Y-21651405D01*
X17525190Y-19187112D01*
X17520262Y-19182184D01*
X17487851Y-19161818D01*
X17476509Y-19153771D01*
X17446587Y-19129909D01*
X17440318Y-19126890D01*
X17440315Y-19126888D01*
X17412093Y-19113296D01*
X17399927Y-19106572D01*
X17373414Y-19089913D01*
X17373412Y-19089912D01*
X17367522Y-19086211D01*
X17331393Y-19073568D01*
X17318554Y-19068250D01*
X17290336Y-19054661D01*
X17290329Y-19054658D01*
X17284061Y-19051640D01*
X17277276Y-19050091D01*
X17277267Y-19050088D01*
X17246735Y-19043119D01*
X17233382Y-19039273D01*
X17197255Y-19026632D01*
X17190338Y-19025852D01*
X17190336Y-19025852D01*
X17159218Y-19022345D01*
X17145518Y-19020017D01*
X17114988Y-19013050D01*
X17114983Y-19013049D01*
X17108194Y-19011500D01*
X17101228Y-19011500D01*
X12608500Y-19011500D01*
X12546500Y-18994887D01*
X12501113Y-18949500D01*
X12484500Y-18887500D01*
X12484500Y-18593914D01*
X12485280Y-18580031D01*
X12488785Y-18548923D01*
X12489565Y-18542000D01*
X12485279Y-18503968D01*
X12484500Y-18490086D01*
X12484500Y-8850766D01*
X12484500Y-8843805D01*
X12475980Y-8806481D01*
X12473655Y-8792800D01*
X12469368Y-8754745D01*
X12456724Y-8718610D01*
X12452875Y-8705249D01*
X12448441Y-8685824D01*
X12444359Y-8667939D01*
X12427750Y-8633450D01*
X12422433Y-8620613D01*
X12412088Y-8591048D01*
X12412087Y-8591047D01*
X12409789Y-8584478D01*
X12389418Y-8552058D01*
X12382694Y-8539890D01*
X12369113Y-8511688D01*
X12369112Y-8511687D01*
X12366091Y-8505413D01*
X12342223Y-8475484D01*
X12334177Y-8464143D01*
X12317520Y-8437633D01*
X12313816Y-8431738D01*
X12186266Y-8304188D01*
X12186262Y-8304183D01*
X12034252Y-8152174D01*
X12034252Y-8152173D01*
X12007190Y-8125112D01*
X12007189Y-8125111D01*
X12002262Y-8120184D01*
X11969851Y-8099818D01*
X11958509Y-8091771D01*
X11928587Y-8067909D01*
X11922318Y-8064890D01*
X11922315Y-8064888D01*
X11894093Y-8051296D01*
X11881927Y-8044572D01*
X11855414Y-8027913D01*
X11855412Y-8027912D01*
X11849522Y-8024211D01*
X11813393Y-8011568D01*
X11800554Y-8006250D01*
X11772336Y-7992661D01*
X11772329Y-7992658D01*
X11766061Y-7989640D01*
X11759276Y-7988091D01*
X11759267Y-7988088D01*
X11728735Y-7981119D01*
X11715382Y-7977273D01*
X11679255Y-7964632D01*
X11672338Y-7963852D01*
X11672336Y-7963852D01*
X11641218Y-7960345D01*
X11627518Y-7958017D01*
X11596988Y-7951050D01*
X11596983Y-7951049D01*
X11590194Y-7949500D01*
X11583228Y-7949500D01*
X10551914Y-7949500D01*
X10538031Y-7948720D01*
X10506923Y-7945215D01*
X10500000Y-7944435D01*
X10493077Y-7945215D01*
X10461969Y-7948720D01*
X10448086Y-7949500D01*
X10382940Y-7949500D01*
X10335487Y-7940061D01*
X10295259Y-7913181D01*
X10034258Y-7652180D01*
X10004008Y-7602817D01*
X9999466Y-7545101D01*
X10021621Y-7491614D01*
X10065644Y-7454014D01*
X10121939Y-7440499D01*
X11341286Y-7440499D01*
X11344864Y-7440499D01*
X11369991Y-7437585D01*
X11472765Y-7392206D01*
X11552206Y-7312765D01*
X11597585Y-7209991D01*
X11600500Y-7184865D01*
X11600499Y-6446045D01*
X11616170Y-6385709D01*
X11659221Y-6340621D01*
X11718772Y-6322180D01*
X11779770Y-6335048D01*
X11826798Y-6375971D01*
X11847970Y-6434606D01*
X11853170Y-6490728D01*
X11854244Y-6502310D01*
X11855812Y-6507821D01*
X11855814Y-6507831D01*
X11911024Y-6701870D01*
X11911026Y-6701876D01*
X11912595Y-6707389D01*
X12007634Y-6898255D01*
X12011086Y-6902826D01*
X12132344Y-7063397D01*
X12136128Y-7068407D01*
X12140360Y-7072265D01*
X12267768Y-7188414D01*
X12293698Y-7212052D01*
X12474981Y-7324298D01*
X12673802Y-7401321D01*
X12883390Y-7440500D01*
X13090881Y-7440500D01*
X13096610Y-7440500D01*
X13306198Y-7401321D01*
X13505019Y-7324298D01*
X13686302Y-7212052D01*
X13843872Y-7068407D01*
X13972366Y-6898255D01*
X14067405Y-6707389D01*
X14125756Y-6502310D01*
X14136529Y-6386047D01*
X14156633Y-6328996D01*
X14199410Y-6289999D01*
X14320589Y-6289999D01*
X14363367Y-6328996D01*
X14383471Y-6386048D01*
X14393170Y-6490728D01*
X14394244Y-6502310D01*
X14395812Y-6507821D01*
X14395814Y-6507831D01*
X14451024Y-6701870D01*
X14451026Y-6701876D01*
X14452595Y-6707389D01*
X14547634Y-6898255D01*
X14551086Y-6902826D01*
X14672344Y-7063397D01*
X14676128Y-7068407D01*
X14680360Y-7072265D01*
X14807768Y-7188414D01*
X14833698Y-7212052D01*
X15014981Y-7324298D01*
X15213802Y-7401321D01*
X15423390Y-7440500D01*
X15630881Y-7440500D01*
X15636610Y-7440500D01*
X15846198Y-7401321D01*
X16045019Y-7324298D01*
X16226302Y-7212052D01*
X16383872Y-7068407D01*
X16512366Y-6898255D01*
X16607405Y-6707389D01*
X16665756Y-6502310D01*
X16676529Y-6386047D01*
X16696633Y-6328996D01*
X16739410Y-6289999D01*
X16696633Y-6251003D01*
X16676529Y-6193951D01*
X16672202Y-6147254D01*
X16665756Y-6077690D01*
X16662113Y-6064888D01*
X16608975Y-5878129D01*
X16607405Y-5872611D01*
X16512366Y-5681745D01*
X16383872Y-5511593D01*
X16331296Y-5463663D01*
X16230531Y-5371803D01*
X16230529Y-5371801D01*
X16226302Y-5367948D01*
X16221438Y-5364936D01*
X16221435Y-5364934D01*
X16049890Y-5258718D01*
X16049889Y-5258717D01*
X16045019Y-5255702D01*
X16039681Y-5253634D01*
X16039677Y-5253632D01*
X15851545Y-5180750D01*
X15851540Y-5180748D01*
X15846198Y-5178679D01*
X15649388Y-5141888D01*
X15588636Y-5111637D01*
X15552908Y-5053934D01*
X15552908Y-4986066D01*
X15588636Y-4928363D01*
X15649388Y-4898111D01*
X15846198Y-4861321D01*
X16045019Y-4784298D01*
X16226302Y-4672052D01*
X16383872Y-4528407D01*
X16512366Y-4358255D01*
X16579325Y-4223781D01*
X16625722Y-4173212D01*
X16691914Y-4155065D01*
X16757617Y-4174904D01*
X16802705Y-4226650D01*
X16894113Y-4422676D01*
X16899501Y-4432008D01*
X17028784Y-4616643D01*
X17035721Y-4624909D01*
X17195090Y-4784278D01*
X17203356Y-4791215D01*
X17387991Y-4920498D01*
X17397327Y-4925888D01*
X17591571Y-5016465D01*
X17636565Y-5052104D01*
X17660690Y-5104186D01*
X17658776Y-5161553D01*
X17631234Y-5211911D01*
X17583965Y-5244472D01*
X17560328Y-5253629D01*
X17560313Y-5253636D01*
X17554981Y-5255702D01*
X17550114Y-5258715D01*
X17550109Y-5258718D01*
X17378564Y-5364934D01*
X17378555Y-5364940D01*
X17373698Y-5367948D01*
X17369475Y-5371797D01*
X17369468Y-5371803D01*
X17220360Y-5507734D01*
X17220354Y-5507739D01*
X17216128Y-5511593D01*
X17212681Y-5516156D01*
X17212675Y-5516164D01*
X17091086Y-5677173D01*
X17091083Y-5677177D01*
X17087634Y-5681745D01*
X17085082Y-5686870D01*
X17085079Y-5686875D01*
X16995153Y-5867473D01*
X16992595Y-5872611D01*
X16991027Y-5878119D01*
X16991024Y-5878129D01*
X16935814Y-6072168D01*
X16935811Y-6072179D01*
X16934244Y-6077690D01*
X16933714Y-6083400D01*
X16933714Y-6083405D01*
X16923471Y-6193951D01*
X16903367Y-6251003D01*
X16860589Y-6289999D01*
X16903367Y-6328996D01*
X16923471Y-6386048D01*
X16933170Y-6490728D01*
X16934244Y-6502310D01*
X16935812Y-6507821D01*
X16935814Y-6507831D01*
X16991024Y-6701870D01*
X16991026Y-6701876D01*
X16992595Y-6707389D01*
X17087634Y-6898255D01*
X17091086Y-6902826D01*
X17212344Y-7063397D01*
X17216128Y-7068407D01*
X17220360Y-7072265D01*
X17347768Y-7188414D01*
X17373698Y-7212052D01*
X17554981Y-7324298D01*
X17753802Y-7401321D01*
X17963390Y-7440500D01*
X18170881Y-7440500D01*
X18176610Y-7440500D01*
X18386198Y-7401321D01*
X18585019Y-7324298D01*
X18766302Y-7212052D01*
X18923872Y-7068407D01*
X19052366Y-6898255D01*
X19147405Y-6707389D01*
X19205756Y-6502310D01*
X19225429Y-6290000D01*
X19205756Y-6077690D01*
X19202113Y-6064888D01*
X19148975Y-5878129D01*
X19147405Y-5872611D01*
X19052366Y-5681745D01*
X18923872Y-5511593D01*
X18871296Y-5463663D01*
X18770531Y-5371803D01*
X18770529Y-5371801D01*
X18766302Y-5367948D01*
X18761438Y-5364936D01*
X18761435Y-5364934D01*
X18589890Y-5258718D01*
X18589889Y-5258717D01*
X18585019Y-5255702D01*
X18579677Y-5253632D01*
X18579674Y-5253631D01*
X18556036Y-5244473D01*
X18508766Y-5211912D01*
X18481223Y-5161553D01*
X18479309Y-5104186D01*
X18503434Y-5052104D01*
X18548428Y-5016465D01*
X18583737Y-5000000D01*
X24644341Y-5000000D01*
X24644813Y-5005395D01*
X24659973Y-5178679D01*
X24664937Y-5235408D01*
X24666336Y-5240630D01*
X24666337Y-5240634D01*
X24724694Y-5458430D01*
X24724697Y-5458438D01*
X24726097Y-5463663D01*
X24825965Y-5677829D01*
X24961505Y-5871401D01*
X25128599Y-6038495D01*
X25322171Y-6174035D01*
X25536337Y-6273903D01*
X25764592Y-6335063D01*
X25941034Y-6350500D01*
X26056258Y-6350500D01*
X26058966Y-6350500D01*
X26235408Y-6335063D01*
X26463663Y-6273903D01*
X26677829Y-6174035D01*
X26871401Y-6038495D01*
X27038495Y-5871401D01*
X27174035Y-5677830D01*
X27273903Y-5463663D01*
X27335063Y-5235408D01*
X27355659Y-5000000D01*
X27335063Y-4764592D01*
X27273903Y-4536337D01*
X27174035Y-4322171D01*
X27038495Y-4128599D01*
X26871401Y-3961505D01*
X26677829Y-3825965D01*
X26463663Y-3726097D01*
X26458438Y-3724697D01*
X26458430Y-3724694D01*
X26240634Y-3666337D01*
X26240630Y-3666336D01*
X26235408Y-3664937D01*
X26230020Y-3664465D01*
X26230017Y-3664465D01*
X26061664Y-3649736D01*
X26061662Y-3649735D01*
X26058966Y-3649500D01*
X25941034Y-3649500D01*
X25938338Y-3649735D01*
X25938335Y-3649736D01*
X25769982Y-3664465D01*
X25769977Y-3664465D01*
X25764592Y-3664937D01*
X25759371Y-3666335D01*
X25759365Y-3666337D01*
X25541569Y-3724694D01*
X25541557Y-3724698D01*
X25536337Y-3726097D01*
X25531432Y-3728383D01*
X25531427Y-3728386D01*
X25327081Y-3823675D01*
X25327077Y-3823677D01*
X25322171Y-3825965D01*
X25317738Y-3829068D01*
X25317731Y-3829073D01*
X25133034Y-3958399D01*
X25133029Y-3958402D01*
X25128599Y-3961505D01*
X25124775Y-3965328D01*
X25124769Y-3965334D01*
X24965336Y-4124767D01*
X24965330Y-4124773D01*
X24961505Y-4128599D01*
X24958406Y-4133023D01*
X24958399Y-4133033D01*
X24829066Y-4317740D01*
X24829061Y-4317747D01*
X24825965Y-4322170D01*
X24823683Y-4327061D01*
X24823678Y-4327072D01*
X24728386Y-4531427D01*
X24728383Y-4531432D01*
X24726097Y-4536337D01*
X24724698Y-4541557D01*
X24724694Y-4541569D01*
X24666337Y-4759365D01*
X24666335Y-4759371D01*
X24664937Y-4764592D01*
X24664465Y-4769977D01*
X24664465Y-4769982D01*
X24647214Y-4967166D01*
X24644341Y-5000000D01*
X18583737Y-5000000D01*
X18742672Y-4925888D01*
X18752008Y-4920498D01*
X18936643Y-4791215D01*
X18944909Y-4784278D01*
X19104278Y-4624909D01*
X19111215Y-4616643D01*
X19240498Y-4432008D01*
X19245886Y-4422676D01*
X19341143Y-4218397D01*
X19344831Y-4208263D01*
X19396943Y-4013780D01*
X19397311Y-4002551D01*
X19386369Y-4000000D01*
X17944000Y-4000000D01*
X17882000Y-3983387D01*
X17836613Y-3938000D01*
X17820000Y-3876000D01*
X17820000Y-3483674D01*
X18320000Y-3483674D01*
X18323450Y-3496549D01*
X18336326Y-3500000D01*
X19386369Y-3500000D01*
X19397311Y-3497448D01*
X19396943Y-3486219D01*
X19344831Y-3291736D01*
X19341143Y-3281602D01*
X19245889Y-3077332D01*
X19240491Y-3067982D01*
X19111215Y-2883357D01*
X19104280Y-2875092D01*
X18944909Y-2715721D01*
X18936643Y-2708784D01*
X18752008Y-2579501D01*
X18742676Y-2574113D01*
X18538397Y-2478856D01*
X18528263Y-2475168D01*
X18333780Y-2423056D01*
X18322551Y-2422688D01*
X18320000Y-2433631D01*
X18320000Y-3483674D01*
X17820000Y-3483674D01*
X17820000Y-2433631D01*
X17817448Y-2422688D01*
X17806219Y-2423056D01*
X17611736Y-2475168D01*
X17601602Y-2478856D01*
X17397332Y-2574110D01*
X17387982Y-2579508D01*
X17203357Y-2708784D01*
X17195092Y-2715719D01*
X17035719Y-2875092D01*
X17028784Y-2883357D01*
X16899508Y-3067982D01*
X16894109Y-3077332D01*
X16802705Y-3273349D01*
X16757617Y-3325095D01*
X16691914Y-3344934D01*
X16625723Y-3326787D01*
X16579325Y-3276218D01*
X16512366Y-3141745D01*
X16383872Y-2971593D01*
X16379639Y-2967734D01*
X16230531Y-2831803D01*
X16230529Y-2831801D01*
X16226302Y-2827948D01*
X16221438Y-2824936D01*
X16221435Y-2824934D01*
X16049890Y-2718718D01*
X16049889Y-2718717D01*
X16045019Y-2715702D01*
X16039681Y-2713634D01*
X16039677Y-2713632D01*
X15851545Y-2640750D01*
X15851540Y-2640748D01*
X15846198Y-2638679D01*
X15840560Y-2637625D01*
X15642239Y-2600552D01*
X15642236Y-2600551D01*
X15636610Y-2599500D01*
X15423390Y-2599500D01*
X15417764Y-2600551D01*
X15417760Y-2600552D01*
X15219439Y-2637625D01*
X15219436Y-2637625D01*
X15213802Y-2638679D01*
X15208461Y-2640747D01*
X15208454Y-2640750D01*
X15020322Y-2713632D01*
X15020313Y-2713636D01*
X15014981Y-2715702D01*
X15010114Y-2718715D01*
X15010109Y-2718718D01*
X14838564Y-2824934D01*
X14838555Y-2824940D01*
X14833698Y-2827948D01*
X14829475Y-2831797D01*
X14829468Y-2831803D01*
X14680360Y-2967734D01*
X14680354Y-2967739D01*
X14676128Y-2971593D01*
X14672681Y-2976156D01*
X14672675Y-2976164D01*
X14551086Y-3137173D01*
X14551083Y-3137177D01*
X14547634Y-3141745D01*
X14545084Y-3146867D01*
X14545079Y-3146875D01*
X14477994Y-3281602D01*
X14452595Y-3332611D01*
X14451027Y-3338119D01*
X14451024Y-3338129D01*
X14395814Y-3532168D01*
X14395811Y-3532179D01*
X14394244Y-3537690D01*
X14393714Y-3543400D01*
X14393714Y-3543405D01*
X14383471Y-3653951D01*
X14363367Y-3711003D01*
X14320589Y-3749999D01*
X14363367Y-3788996D01*
X14383470Y-3846047D01*
X14394244Y-3962310D01*
X14395812Y-3967821D01*
X14395814Y-3967831D01*
X14451024Y-4161870D01*
X14451026Y-4161876D01*
X14452595Y-4167389D01*
X14547634Y-4358255D01*
X14676128Y-4528407D01*
X14833698Y-4672052D01*
X15014981Y-4784298D01*
X15213802Y-4861321D01*
X15408321Y-4897683D01*
X15410610Y-4898111D01*
X15471363Y-4928363D01*
X15507091Y-4986066D01*
X15507091Y-5053934D01*
X15471363Y-5111637D01*
X15410610Y-5141889D01*
X15219439Y-5177625D01*
X15219436Y-5177625D01*
X15213802Y-5178679D01*
X15208461Y-5180747D01*
X15208454Y-5180750D01*
X15020322Y-5253632D01*
X15020313Y-5253636D01*
X15014981Y-5255702D01*
X15010114Y-5258715D01*
X15010109Y-5258718D01*
X14838564Y-5364934D01*
X14838555Y-5364940D01*
X14833698Y-5367948D01*
X14829475Y-5371797D01*
X14829468Y-5371803D01*
X14680360Y-5507734D01*
X14680354Y-5507739D01*
X14676128Y-5511593D01*
X14672681Y-5516156D01*
X14672675Y-5516164D01*
X14551086Y-5677173D01*
X14551083Y-5677177D01*
X14547634Y-5681745D01*
X14545082Y-5686870D01*
X14545079Y-5686875D01*
X14455153Y-5867473D01*
X14452595Y-5872611D01*
X14451027Y-5878119D01*
X14451024Y-5878129D01*
X14395814Y-6072168D01*
X14395811Y-6072179D01*
X14394244Y-6077690D01*
X14393714Y-6083400D01*
X14393714Y-6083405D01*
X14383471Y-6193951D01*
X14363367Y-6251003D01*
X14320589Y-6289999D01*
X14199410Y-6289999D01*
X14156633Y-6251003D01*
X14136529Y-6193951D01*
X14132202Y-6147254D01*
X14125756Y-6077690D01*
X14122113Y-6064888D01*
X14068975Y-5878129D01*
X14067405Y-5872611D01*
X13972366Y-5681745D01*
X13843872Y-5511593D01*
X13791296Y-5463663D01*
X13690531Y-5371803D01*
X13690529Y-5371801D01*
X13686302Y-5367948D01*
X13681438Y-5364936D01*
X13681435Y-5364934D01*
X13509890Y-5258718D01*
X13509889Y-5258717D01*
X13505019Y-5255702D01*
X13499681Y-5253634D01*
X13499677Y-5253632D01*
X13311545Y-5180750D01*
X13311540Y-5180748D01*
X13306198Y-5178679D01*
X13109388Y-5141888D01*
X13048636Y-5111637D01*
X13012908Y-5053934D01*
X13012908Y-4986066D01*
X13048636Y-4928363D01*
X13109388Y-4898111D01*
X13306198Y-4861321D01*
X13505019Y-4784298D01*
X13686302Y-4672052D01*
X13843872Y-4528407D01*
X13972366Y-4358255D01*
X14067405Y-4167389D01*
X14125756Y-3962310D01*
X14136529Y-3846047D01*
X14156633Y-3788996D01*
X14199410Y-3749999D01*
X14156633Y-3711003D01*
X14136529Y-3653951D01*
X14128124Y-3563250D01*
X14125756Y-3537690D01*
X14067405Y-3332611D01*
X13972366Y-3141745D01*
X13843872Y-2971593D01*
X13839639Y-2967734D01*
X13690531Y-2831803D01*
X13690529Y-2831801D01*
X13686302Y-2827948D01*
X13681438Y-2824936D01*
X13681435Y-2824934D01*
X13509890Y-2718718D01*
X13509889Y-2718717D01*
X13505019Y-2715702D01*
X13499681Y-2713634D01*
X13499677Y-2713632D01*
X13311545Y-2640750D01*
X13311540Y-2640748D01*
X13306198Y-2638679D01*
X13300560Y-2637625D01*
X13102239Y-2600552D01*
X13102236Y-2600551D01*
X13096610Y-2599500D01*
X12883390Y-2599500D01*
X12877764Y-2600551D01*
X12877760Y-2600552D01*
X12679439Y-2637625D01*
X12679436Y-2637625D01*
X12673802Y-2638679D01*
X12668461Y-2640747D01*
X12668454Y-2640750D01*
X12480322Y-2713632D01*
X12480313Y-2713636D01*
X12474981Y-2715702D01*
X12470114Y-2718715D01*
X12470109Y-2718718D01*
X12298564Y-2824934D01*
X12298555Y-2824940D01*
X12293698Y-2827948D01*
X12289475Y-2831797D01*
X12289468Y-2831803D01*
X12140360Y-2967734D01*
X12140354Y-2967739D01*
X12136128Y-2971593D01*
X12132681Y-2976156D01*
X12132675Y-2976164D01*
X12011086Y-3137173D01*
X12011083Y-3137177D01*
X12007634Y-3141745D01*
X12005084Y-3146867D01*
X12005079Y-3146875D01*
X11937994Y-3281602D01*
X11912595Y-3332611D01*
X11911027Y-3338119D01*
X11911024Y-3338129D01*
X11855814Y-3532168D01*
X11855811Y-3532179D01*
X11854244Y-3537690D01*
X11853714Y-3543400D01*
X11853714Y-3543405D01*
X11843471Y-3653951D01*
X11823367Y-3711003D01*
X11780589Y-3749999D01*
X11823367Y-3788996D01*
X11843470Y-3846047D01*
X11854244Y-3962310D01*
X11855812Y-3967821D01*
X11855814Y-3967831D01*
X11911024Y-4161870D01*
X11911026Y-4161876D01*
X11912595Y-4167389D01*
X12007634Y-4358255D01*
X12136128Y-4528407D01*
X12293698Y-4672052D01*
X12474981Y-4784298D01*
X12673802Y-4861321D01*
X12868321Y-4897683D01*
X12870610Y-4898111D01*
X12931363Y-4928363D01*
X12967091Y-4986066D01*
X12967091Y-5053934D01*
X12931363Y-5111637D01*
X12870610Y-5141889D01*
X12679439Y-5177625D01*
X12679436Y-5177625D01*
X12673802Y-5178679D01*
X12668461Y-5180747D01*
X12668454Y-5180750D01*
X12480322Y-5253632D01*
X12480313Y-5253636D01*
X12474981Y-5255702D01*
X12470114Y-5258715D01*
X12470109Y-5258718D01*
X12298564Y-5364934D01*
X12298555Y-5364940D01*
X12293698Y-5367948D01*
X12289475Y-5371797D01*
X12289468Y-5371803D01*
X12140360Y-5507734D01*
X12140354Y-5507739D01*
X12136128Y-5511593D01*
X12132681Y-5516156D01*
X12132675Y-5516164D01*
X12011086Y-5677173D01*
X12011083Y-5677177D01*
X12007634Y-5681745D01*
X12005082Y-5686870D01*
X12005079Y-5686875D01*
X11915153Y-5867473D01*
X11912595Y-5872611D01*
X11911027Y-5878119D01*
X11911024Y-5878129D01*
X11855814Y-6072168D01*
X11855811Y-6072179D01*
X11854244Y-6077690D01*
X11853715Y-6083398D01*
X11853714Y-6083404D01*
X11847970Y-6145395D01*
X11826798Y-6204030D01*
X11779770Y-6244953D01*
X11718772Y-6257821D01*
X11659221Y-6239380D01*
X11616170Y-6194292D01*
X11600499Y-6133953D01*
X11600499Y-5398714D01*
X11600499Y-5398710D01*
X11600499Y-5395136D01*
X11597585Y-5370009D01*
X11552206Y-5267235D01*
X11472765Y-5187794D01*
X11456812Y-5180750D01*
X11378522Y-5146181D01*
X11378517Y-5146179D01*
X11369991Y-5142415D01*
X11360726Y-5141340D01*
X11348414Y-5139911D01*
X11348401Y-5139910D01*
X11344865Y-5139500D01*
X11341290Y-5139500D01*
X10616245Y-5139500D01*
X10557581Y-5124745D01*
X10512878Y-5083993D01*
X10492774Y-5026941D01*
X10502053Y-4967166D01*
X10538507Y-4918894D01*
X10593458Y-4893611D01*
X10766198Y-4861321D01*
X10965019Y-4784298D01*
X11146302Y-4672052D01*
X11303872Y-4528407D01*
X11432366Y-4358255D01*
X11527405Y-4167389D01*
X11585756Y-3962310D01*
X11596529Y-3846047D01*
X11616633Y-3788996D01*
X11659410Y-3749999D01*
X11616633Y-3711003D01*
X11596529Y-3653951D01*
X11588124Y-3563250D01*
X11585756Y-3537690D01*
X11527405Y-3332611D01*
X11432366Y-3141745D01*
X11303872Y-2971593D01*
X11299639Y-2967734D01*
X11150531Y-2831803D01*
X11150529Y-2831801D01*
X11146302Y-2827948D01*
X11141438Y-2824936D01*
X11141435Y-2824934D01*
X10969890Y-2718718D01*
X10969889Y-2718717D01*
X10965019Y-2715702D01*
X10959681Y-2713634D01*
X10959677Y-2713632D01*
X10771545Y-2640750D01*
X10771540Y-2640748D01*
X10766198Y-2638679D01*
X10760560Y-2637625D01*
X10562239Y-2600552D01*
X10562236Y-2600551D01*
X10556610Y-2599500D01*
X10343390Y-2599500D01*
X10337764Y-2600551D01*
X10337760Y-2600552D01*
X10139439Y-2637625D01*
X10139436Y-2637625D01*
X10133802Y-2638679D01*
X10128461Y-2640747D01*
X10128454Y-2640750D01*
X9940322Y-2713632D01*
X9940313Y-2713636D01*
X9934981Y-2715702D01*
X9930114Y-2718715D01*
X9930109Y-2718718D01*
X9758564Y-2824934D01*
X9758555Y-2824940D01*
X9753698Y-2827948D01*
X9749475Y-2831797D01*
X9749468Y-2831803D01*
X9600360Y-2967734D01*
X9600354Y-2967739D01*
X9596128Y-2971593D01*
X9592681Y-2976156D01*
X9592675Y-2976164D01*
X9471086Y-3137173D01*
X9471083Y-3137177D01*
X9467634Y-3141745D01*
X9465084Y-3146867D01*
X9465079Y-3146875D01*
X9397994Y-3281602D01*
X9372595Y-3332611D01*
X9371027Y-3338119D01*
X9371024Y-3338129D01*
X9315814Y-3532168D01*
X9315811Y-3532179D01*
X9314244Y-3537690D01*
X9313714Y-3543400D01*
X9313714Y-3543405D01*
X9297838Y-3714745D01*
X9294571Y-3750000D01*
X9295100Y-3755709D01*
X9302531Y-3835910D01*
X9314244Y-3962310D01*
X9315812Y-3967821D01*
X9315814Y-3967831D01*
X9371024Y-4161870D01*
X9371026Y-4161876D01*
X9372595Y-4167389D01*
X9467634Y-4358255D01*
X9596128Y-4528407D01*
X9753698Y-4672052D01*
X9934981Y-4784298D01*
X10133802Y-4861321D01*
X10306541Y-4893611D01*
X10361493Y-4918894D01*
X10397947Y-4967166D01*
X10407226Y-5026941D01*
X10387122Y-5083993D01*
X10342419Y-5124745D01*
X10283755Y-5139500D01*
X9558714Y-5139500D01*
X9558696Y-5139500D01*
X9555136Y-5139501D01*
X9551589Y-5139912D01*
X9551577Y-5139913D01*
X9539277Y-5141340D01*
X9539275Y-5141340D01*
X9530009Y-5142415D01*
X9521479Y-5146180D01*
X9521476Y-5146182D01*
X9437745Y-5183153D01*
X9437743Y-5183154D01*
X9427235Y-5187794D01*
X9419112Y-5195916D01*
X9419109Y-5195919D01*
X9355919Y-5259109D01*
X9355916Y-5259112D01*
X9347794Y-5267235D01*
X9302415Y-5370009D01*
X9301340Y-5379271D01*
X9301340Y-5379273D01*
X9299911Y-5391585D01*
X9299910Y-5391599D01*
X9299500Y-5395135D01*
X9299500Y-5398710D01*
X9299500Y-6618060D01*
X9285985Y-6674355D01*
X9248385Y-6718378D01*
X9194898Y-6740533D01*
X9137182Y-6735991D01*
X9087819Y-6705741D01*
X8534255Y-6152177D01*
X8534252Y-6152173D01*
X8507181Y-6125103D01*
X8502262Y-6120184D01*
X8469851Y-6099818D01*
X8458509Y-6091771D01*
X8448017Y-6083404D01*
X8428587Y-6067909D01*
X8422318Y-6064890D01*
X8422315Y-6064888D01*
X8394093Y-6051296D01*
X8381927Y-6044572D01*
X8355414Y-6027913D01*
X8355412Y-6027912D01*
X8349522Y-6024211D01*
X8313393Y-6011568D01*
X8300554Y-6006250D01*
X8272336Y-5992661D01*
X8272329Y-5992658D01*
X8266061Y-5989640D01*
X8259276Y-5988091D01*
X8259267Y-5988088D01*
X8228735Y-5981119D01*
X8215382Y-5977273D01*
X8196699Y-5970735D01*
X8185823Y-5966930D01*
X8185821Y-5966929D01*
X8179255Y-5964632D01*
X8172338Y-5963852D01*
X8172336Y-5963852D01*
X8141218Y-5960345D01*
X8127518Y-5958017D01*
X8096988Y-5951050D01*
X8096983Y-5951049D01*
X8090194Y-5949500D01*
X8083228Y-5949500D01*
X8051914Y-5949500D01*
X8038031Y-5948720D01*
X8006923Y-5945215D01*
X8000000Y-5944435D01*
X7993077Y-5945215D01*
X7961969Y-5948720D01*
X7948086Y-5949500D01*
X7909806Y-5949500D01*
X7903020Y-5951048D01*
X7903008Y-5951050D01*
X7872479Y-5958017D01*
X7858781Y-5960345D01*
X7827665Y-5963852D01*
X7827663Y-5963852D01*
X7820745Y-5964632D01*
X7784619Y-5977272D01*
X7771268Y-5981118D01*
X7740728Y-5988089D01*
X7740717Y-5988092D01*
X7733939Y-5989640D01*
X7727671Y-5992657D01*
X7727666Y-5992660D01*
X7699451Y-6006247D01*
X7686613Y-6011565D01*
X7657047Y-6021911D01*
X7657037Y-6021915D01*
X7650478Y-6024211D01*
X7644589Y-6027910D01*
X7644587Y-6027912D01*
X7618064Y-6044577D01*
X7605900Y-6051299D01*
X7577692Y-6064884D01*
X7577684Y-6064888D01*
X7571413Y-6067909D01*
X7565967Y-6072251D01*
X7565967Y-6072252D01*
X7541490Y-6091771D01*
X7530155Y-6099814D01*
X7504989Y-6115627D01*
X7497738Y-6120184D01*
X7492816Y-6125105D01*
X7492807Y-6125113D01*
X7470665Y-6147254D01*
X7460304Y-6156514D01*
X7435820Y-6176040D01*
X7435812Y-6176047D01*
X7430380Y-6180380D01*
X7426047Y-6185812D01*
X7426040Y-6185820D01*
X7406514Y-6210304D01*
X7397254Y-6220665D01*
X7375113Y-6242807D01*
X7375105Y-6242816D01*
X7370184Y-6247738D01*
X7366477Y-6253636D01*
X7366478Y-6253636D01*
X7349814Y-6280155D01*
X7341771Y-6291490D01*
X7338407Y-6295709D01*
X7317909Y-6321413D01*
X7314888Y-6327684D01*
X7314884Y-6327692D01*
X7301299Y-6355900D01*
X7294577Y-6368064D01*
X7283278Y-6386048D01*
X7274211Y-6400478D01*
X7271915Y-6407037D01*
X7271911Y-6407047D01*
X7261565Y-6436613D01*
X7256247Y-6449451D01*
X7242660Y-6477666D01*
X7242657Y-6477671D01*
X7239640Y-6483939D01*
X7238092Y-6490717D01*
X7238089Y-6490728D01*
X7231118Y-6521268D01*
X7227272Y-6534619D01*
X7214632Y-6570745D01*
X7213852Y-6577663D01*
X7213852Y-6577665D01*
X7210345Y-6608781D01*
X7208017Y-6622479D01*
X7201050Y-6653008D01*
X7201048Y-6653020D01*
X7199500Y-6659806D01*
X7199500Y-6666772D01*
X7199500Y-6698086D01*
X7198720Y-6711968D01*
X7194435Y-6750000D01*
X500Y-6750000D01*
X500Y-3000000D01*
X1994659Y-3000000D01*
X1995256Y-3006062D01*
X2013378Y-3190067D01*
X2013379Y-3190073D01*
X2013976Y-3196132D01*
X2015743Y-3201957D01*
X2015744Y-3201962D01*
X2059115Y-3344934D01*
X2071186Y-3384727D01*
X2074055Y-3390095D01*
X2074057Y-3390099D01*
X2161215Y-3553161D01*
X2161219Y-3553167D01*
X2164090Y-3558538D01*
X2167956Y-3563249D01*
X2167957Y-3563250D01*
X2251410Y-3664937D01*
X2289117Y-3710883D01*
X2441462Y-3835910D01*
X2446834Y-3838781D01*
X2446838Y-3838784D01*
X2516465Y-3876000D01*
X2615273Y-3928814D01*
X2803868Y-3986024D01*
X3000000Y-4005341D01*
X3196132Y-3986024D01*
X3384727Y-3928814D01*
X3558538Y-3835910D01*
X3710883Y-3710883D01*
X3835910Y-3558538D01*
X3928814Y-3384727D01*
X3986024Y-3196132D01*
X4005341Y-3000000D01*
X3986024Y-2803868D01*
X3928814Y-2615273D01*
X3855898Y-2478856D01*
X3838784Y-2446838D01*
X3838781Y-2446834D01*
X3835910Y-2441462D01*
X3710883Y-2289117D01*
X3558538Y-2164090D01*
X3553167Y-2161219D01*
X3553161Y-2161215D01*
X3390099Y-2074057D01*
X3390095Y-2074055D01*
X3384727Y-2071186D01*
X3378899Y-2069418D01*
X3201962Y-2015744D01*
X3201957Y-2015743D01*
X3196132Y-2013976D01*
X3190073Y-2013379D01*
X3190067Y-2013378D01*
X3006062Y-1995256D01*
X3000000Y-1994659D01*
X2993938Y-1995256D01*
X2809932Y-2013378D01*
X2809924Y-2013379D01*
X2803868Y-2013976D01*
X2798044Y-2015742D01*
X2798037Y-2015744D01*
X2621100Y-2069418D01*
X2621096Y-2069419D01*
X2615273Y-2071186D01*
X2609907Y-2074053D01*
X2609900Y-2074057D01*
X2446838Y-2161215D01*
X2446827Y-2161222D01*
X2441462Y-2164090D01*
X2436754Y-2167953D01*
X2436749Y-2167957D01*
X2293823Y-2285254D01*
X2293818Y-2285258D01*
X2289117Y-2289117D01*
X2285258Y-2293818D01*
X2285254Y-2293823D01*
X2167957Y-2436749D01*
X2167953Y-2436754D01*
X2164090Y-2441462D01*
X2161222Y-2446827D01*
X2161215Y-2446838D01*
X2074057Y-2609900D01*
X2074053Y-2609907D01*
X2071186Y-2615273D01*
X2069419Y-2621096D01*
X2069418Y-2621100D01*
X2015744Y-2798037D01*
X2015742Y-2798044D01*
X2013976Y-2803868D01*
X2013379Y-2809924D01*
X2013378Y-2809932D01*
X1995256Y-2993938D01*
X1994659Y-3000000D01*
X500Y-3000000D01*
X500Y-124500D01*
X17113Y-62500D01*
X62500Y-17113D01*
X124500Y-500D01*
X28875500Y-500D01*
X28937500Y-17113D01*
G37*
%TD.AperFunction*%
%TD*%
M02*
