M48
; DRILL file {KiCad (7.0.0)} date Tue Mar 14 22:17:02 2023
; FORMAT={-:-/ absolute / inch / decimal}
; #@! TF.CreationDate,2023-03-14T22:17:02+02:00
; #@! TF.GenerationSoftware,Kicad,Pcbnew,(7.0.0)
; #@! TF.FileFunction,Plated,1,2,PTH
FMAT,2
INCH
; #@! TA.AperFunction,Plated,PTH,ViaDrill
T1C0.0197
; #@! TA.AperFunction,Plated,PTH,ComponentDrill
T2C0.0394
%
G90
G05
T1
X0.1575Y-1.122
X0.2756Y-1.2402
X0.315Y-0.2657
X0.3346Y-0.4724
X0.4134Y-0.3445
X0.46Y-0.73
X0.46Y-0.78
X0.54Y-1.19
X0.5512Y-0.6693
X0.64Y-1.19
X0.78Y-0.89
X0.9843Y-0.3346
T2
X0.41Y-1.295
X0.41Y-1.395
X0.4114Y-0.1476
X0.4114Y-0.2476
X0.51Y-1.295
X0.51Y-1.395
X0.5114Y-0.1476
X0.5114Y-0.2476
X0.61Y-1.295
X0.61Y-1.395
X0.6114Y-0.1476
X0.6114Y-0.2476
X0.71Y-1.295
X0.71Y-1.395
X0.7114Y-0.1476
X0.7114Y-0.2476
T0
M30
